<svg width="18" height="18" viewBox="0 0 18 18" fill="none" xmlns="http://www.w3.org/2000/svg">
<path fill-rule="evenodd" clip-rule="evenodd" d="M4.5 13.5C4.35381 13.3538 4.35381 13.1168 4.5 12.9706L8.47059 9L4.5 5.02941C4.35381 4.88322 4.35381 4.64619 4.5 4.5C4.64619 4.35381 4.88322 4.35381 5.02941 4.5L9 8.47059L12.9706 4.5C13.1168 4.35381 13.3538 4.35381 13.5 4.5C13.6462 4.64619 13.6462 4.88322 13.5 5.02941L9.52941 9L13.5 12.9706C13.6462 13.1168 13.6462 13.3538 13.5 13.5C13.3538 13.6462 13.1168 13.6462 12.9706 13.5L9 9.52941L5.02941 13.5C4.88322 13.6462 4.64619 13.6462 4.5 13.5Z" fill="#9FA2AA"/>
</svg>