<svg viewBox="0 0 114 28" fill="none" xmlns="http://www.w3.org/2000/svg">
<path d="M88.7735 0.00219727C81.4951 0.00219727 74.2155 4.65035 74.2112 13.9187H81.5305V13.9283C81.5305 8.82473 85.1515 6.28371 88.7735 6.28371C92.3956 6.28371 96.0154 8.83981 96.0154 13.9283C96.0154 19.0168 92.3945 21.6505 88.7725 21.6548C85.1505 21.6591 81.5305 19.089 81.5305 13.9283C81.6441 17.521 80.3284 21.0121 77.874 23.6349C79.3093 25.0515 81.0125 26.1671 82.8837 26.9162C84.7549 27.6654 86.7564 28.033 88.7713 27.9977C96.053 27.9977 103.334 23.3183 103.334 13.9294C103.334 4.54052 96.0519 -0.00104166 88.7713 0.00326517L88.7735 0.00219727Z" fill="#F99D33"/>
<path d="M59.7274 13.9283C59.6445 12.3588 60.0709 10.8045 60.9431 9.49789C61.8153 8.19124 63.0864 7.2024 64.5662 6.67917C66.0461 6.15594 67.6553 6.12644 69.1533 6.59507C70.6514 7.06371 71.9577 8.00531 72.877 9.27912C73.5103 6.92784 74.7339 4.77799 76.4313 3.03421C68.0799 -3.32698 52.407 0.31875 52.407 13.9262C52.407 28.5145 70.0581 31.7672 77.8784 23.6316C76.661 22.3342 75.7107 20.8093 75.0819 19.144C74.453 17.4788 74.1579 15.7057 74.2134 13.9262C74.275 14.9167 74.1334 15.9093 73.7974 16.8429C73.4613 17.7764 72.9379 18.6312 72.2594 19.3545C71.5809 20.0777 70.7617 20.6542 69.8523 21.0483C68.9428 21.4424 67.9624 21.6457 66.9715 21.6459C65.9806 21.646 65.0002 21.4429 64.0906 21.0491C63.1811 20.6553 62.3617 20.0791 61.683 19.356C61.0043 18.633 60.4806 17.7784 60.1443 16.8449C59.808 15.9114 59.6661 14.9188 59.7274 13.9283Z" fill="#FDB933"/>
<path d="M81.5328 13.9187H74.2134V13.9283C74.1578 15.7081 74.4528 17.4813 75.0817 19.1468C75.7105 20.8123 76.661 22.3373 77.8785 23.6349C80.3323 21.0118 81.6469 17.521 81.5339 13.9283L81.5328 13.9187Z" fill="#E98430"/>
<path d="M109.226 0.0215938C108.327 0.0572756 107.457 0.357077 106.727 0.883719C105.996 1.41036 105.435 2.14059 105.116 2.98358C104.796 3.82656 104.731 4.74509 104.928 5.62491C105.126 6.50472 105.577 7.30698 106.226 7.9319C106.875 8.55683 107.693 8.97681 108.579 9.13964C109.465 9.30246 110.379 9.20092 111.207 8.84765C112.035 8.49439 112.742 7.905 113.239 7.15278C113.735 6.40056 114 5.51873 114 4.61697C113.975 3.37375 113.458 2.19129 112.563 1.32956C111.668 0.467827 110.468 -0.00263402 109.226 0.0215938ZM109.226 8.10766C108.543 8.08043 107.883 7.85258 107.328 7.45247C106.773 7.05235 106.347 6.49761 106.105 5.85728C105.862 5.21695 105.812 4.51928 105.963 3.85106C106.113 3.18283 106.456 2.57355 106.949 2.09899C107.442 1.62444 108.063 1.30556 108.736 1.18203C109.409 1.05849 110.103 1.13576 110.732 1.40421C111.361 1.67267 111.898 2.12045 112.275 2.69187C112.652 3.2633 112.853 3.93313 112.853 4.61806C112.834 5.56228 112.441 6.46023 111.761 7.11458C111.081 7.76893 110.169 8.12613 109.226 8.10766Z" fill="black"/>
<path d="M110.13 4.92061C110.298 4.93004 110.467 4.90289 110.624 4.84104C110.781 4.77919 110.923 4.68409 111.04 4.56224C111.157 4.44038 111.247 4.29465 111.302 4.13499C111.358 3.97534 111.379 3.80553 111.363 3.63717C111.363 2.50986 110.581 2.147 109.26 2.147H107.346V7.07833H108.441V5.00781H108.957L110.139 7.07833H111.436L110.13 4.92061ZM109.413 4.1669H108.445V2.98253H109.214C109.629 2.98253 110.195 3.01806 110.195 3.52734C110.195 4.07215 109.907 4.17337 109.415 4.17337" fill="black"/>
<path d="M43.7924 15.6306L44.1816 16.1517L44.1042 15.4077V0.668682H51.2515V26.725H44.6117L31.2943 11.6866V26.725H24.1094V0.668682H30.2805L43.7924 15.6306Z" fill="black"/>
<path d="M7.05269 10.8307H20.7861V16.675H7.05269V20.8806H22.5718V26.725H0V0.668682H22.5686V6.47537H7.05269V10.8307Z" fill="black"/>
</svg>