<svg width="20" height="21" viewBox="0 0 20 21" fill="none" xmlns="http://www.w3.org/2000/svg">
<path d="M16.1158 12.575L15.2825 11.1917C15.1075 10.8834 14.9491 10.3 14.9491 9.95835V7.85002C14.9491 5.89169 13.7991 4.20002 12.1408 3.40835C11.7075 2.64169 10.9075 2.16669 9.99081 2.16669C9.08247 2.16669 8.26581 2.65835 7.83247 3.43335C6.20747 4.24169 5.08247 5.91669 5.08247 7.85002V9.95835C5.08247 10.3 4.92414 10.8834 4.74914 11.1834L3.90747 12.575C3.57414 13.1334 3.49914 13.75 3.70747 14.3167C3.90747 14.875 4.38247 15.3084 4.99914 15.5167C6.61581 16.0667 8.31581 16.3334 10.0158 16.3334C11.7158 16.3334 13.4158 16.0667 15.0325 15.525C15.6158 15.3334 16.0658 14.8917 16.2825 14.3167C16.4991 13.7417 16.4408 13.1084 16.1158 12.575Z" fill="#5B6B79"/>
<path d="M12.3573 17.175C12.0073 18.1417 11.0823 18.8334 9.99893 18.8334C9.34059 18.8334 8.69059 18.5667 8.23226 18.0917C7.96559 17.8417 7.76559 17.5084 7.64893 17.1667C7.75726 17.1834 7.86559 17.1917 7.98226 17.2084C8.17393 17.2334 8.37393 17.2584 8.57393 17.275C9.04893 17.3167 9.53226 17.3417 10.0156 17.3417C10.4906 17.3417 10.9656 17.3167 11.4323 17.275C11.6073 17.2584 11.7823 17.25 11.9489 17.225C12.0823 17.2084 12.2156 17.1917 12.3573 17.175Z" fill="#5B6B79"/>
</svg>