<svg width="34" height="35" viewBox="0 0 34 35" fill="none" xmlns="http://www.w3.org/2000/svg">
<path fill-rule="evenodd" clip-rule="evenodd" d="M8.48531 25.5162C8.20965 25.2405 8.20965 24.7936 8.48531 24.5179L15.9723 17.0309L8.48531 9.54389C8.20965 9.26823 8.20965 8.82129 8.48531 8.54562C8.76098 8.26996 9.20792 8.26996 9.48358 8.54562L16.9706 16.0326L24.4576 8.54562C24.7333 8.26996 25.1802 8.26996 25.4559 8.54562C25.7315 8.82129 25.7315 9.26823 25.4559 9.54389L17.9689 17.0309L25.4559 24.5179C25.7315 24.7936 25.7315 25.2405 25.4559 25.5162C25.1802 25.7918 24.7333 25.7918 24.4576 25.5162L16.9706 18.0292L9.48358 25.5162C9.20792 25.7918 8.76098 25.7918 8.48531 25.5162Z" fill="#1E1E1E"/>
</svg>