<svg width="13" height="12" viewBox="0 0 13 12" fill="none" xmlns="http://www.w3.org/2000/svg">
<path d="M6.5 0.999939C3.745 0.999939 1.5 3.24494 1.5 5.99994C1.5 8.75494 3.745 10.9999 6.5 10.9999C9.255 10.9999 11.5 8.75494 11.5 5.99994C11.5 3.24494 9.255 0.999939 6.5 0.999939ZM8.89 4.84994L6.055 7.68494C5.985 7.75494 5.89 7.79494 5.79 7.79494C5.69 7.79494 5.595 7.75494 5.525 7.68494L4.11 6.26994C3.965 6.12494 3.965 5.88494 4.11 5.73994C4.255 5.59494 4.495 5.59494 4.64 5.73994L5.79 6.88994L8.36 4.31994C8.505 4.17494 8.745 4.17494 8.89 4.31994C9.035 4.46494 9.035 4.69994 8.89 4.84994Z" fill="#2CA87F"/>
</svg>