<svg width="19" height="20" viewBox="0 0 19 20" fill="none" xmlns="http://www.w3.org/2000/svg">
<path d="M9.5 12.9688C7.86125 12.9688 6.53125 11.6388 6.53125 10C6.53125 8.36125 7.86125 7.03125 9.5 7.03125C11.1388 7.03125 12.4688 8.36125 12.4688 10C12.4688 11.6388 11.1388 12.9688 9.5 12.9688ZM9.5 8.21875C8.51833 8.21875 7.71875 9.01833 7.71875 10C7.71875 10.9817 8.51833 11.7812 9.5 11.7812C10.4817 11.7812 11.2812 10.9817 11.2812 10C11.2812 9.01833 10.4817 8.21875 9.5 8.21875Z" fill="#292D32"/>
<path d="M12.0412 18.067C11.8749 18.067 11.7087 18.0433 11.5424 18.0037C11.0516 17.8691 10.6399 17.5604 10.3787 17.125L10.2837 16.9666C9.81659 16.1591 9.17534 16.1591 8.70825 16.9666L8.62117 17.117C8.35992 17.5604 7.94825 17.877 7.45742 18.0037C6.95867 18.1383 6.44409 18.067 6.00867 17.8058L4.647 17.022C4.16409 16.745 3.81575 16.2937 3.66534 15.7475C3.52284 15.2012 3.59409 14.6391 3.87117 14.1562C4.10075 13.7525 4.16409 13.3883 4.0295 13.1587C3.89492 12.9291 3.5545 12.7945 3.08742 12.7945C1.93159 12.7945 0.989502 11.8525 0.989502 10.6966V9.3033C0.989502 8.14746 1.93159 7.20538 3.08742 7.20538C3.5545 7.20538 3.89492 7.0708 4.0295 6.84121C4.16409 6.61163 4.10867 6.24746 3.87117 5.84371C3.59409 5.3608 3.52284 4.7908 3.66534 4.25246C3.80784 3.70621 4.15617 3.25496 4.647 2.97788L6.01659 2.19413C6.91117 1.66371 8.09075 1.97246 8.62909 2.88288L8.72409 3.04121C9.19117 3.84871 9.83242 3.84871 10.2995 3.04121L10.3866 2.8908C10.9249 1.97246 12.1045 1.66371 13.007 2.20205L14.3687 2.9858C14.8516 3.26288 15.1999 3.71413 15.3503 4.26038C15.4928 4.80663 15.4216 5.36871 15.1445 5.85163C14.9149 6.25538 14.8516 6.61955 14.9862 6.84913C15.1208 7.07871 15.4612 7.2133 15.9283 7.2133C17.0841 7.2133 18.0262 8.15538 18.0262 9.31121V10.7045C18.0262 11.8604 17.0841 12.8025 15.9283 12.8025C15.4612 12.8025 15.1208 12.937 14.9862 13.1666C14.8516 13.3962 14.907 13.7604 15.1445 14.1641C15.4216 14.647 15.5008 15.217 15.3503 15.7554C15.2078 16.3016 14.8595 16.7529 14.3687 17.03L12.9991 17.8137C12.6983 17.98 12.3737 18.067 12.0412 18.067ZM9.49992 15.1379C10.2045 15.1379 10.8616 15.5812 11.3128 16.365L11.3999 16.5154C11.4949 16.6816 11.6533 16.8004 11.8433 16.8479C12.0333 16.8954 12.2233 16.8716 12.3816 16.7766L13.7512 15.985C13.957 15.8662 14.1153 15.6683 14.1787 15.4308C14.242 15.1933 14.2103 14.9479 14.0916 14.742C13.6403 13.9662 13.5849 13.1666 13.9333 12.557C14.2816 11.9475 15.002 11.5991 15.9045 11.5991C16.4112 11.5991 16.8149 11.1954 16.8149 10.6887V9.29538C16.8149 8.79663 16.4112 8.38496 15.9045 8.38496C15.002 8.38496 14.2816 8.03663 13.9333 7.42705C13.5849 6.81746 13.6403 6.01788 14.0916 5.24205C14.2103 5.03621 14.242 4.7908 14.1787 4.5533C14.1153 4.3158 13.9649 4.1258 13.7591 3.99913L12.3895 3.21538C12.0491 3.00955 11.5978 3.1283 11.392 3.47663L11.3049 3.62705C10.8537 4.4108 10.1966 4.85413 9.492 4.85413C8.78742 4.85413 8.13034 4.4108 7.67909 3.62705L7.592 3.46871C7.39409 3.13621 6.95075 3.01746 6.61034 3.21538L5.24075 4.00705C5.03492 4.1258 4.87659 4.32371 4.81325 4.56121C4.74992 4.79871 4.78159 5.04413 4.90034 5.24996C5.35159 6.0258 5.407 6.82538 5.05867 7.43496C4.71034 8.04455 3.98992 8.39288 3.08742 8.39288C2.58075 8.39288 2.177 8.79663 2.177 9.3033V10.6966C2.177 11.1954 2.58075 11.607 3.08742 11.607C3.98992 11.607 4.71034 11.9554 5.05867 12.565C5.407 13.1745 5.35159 13.9741 4.90034 14.75C4.78159 14.9558 4.74992 15.2012 4.81325 15.4387C4.87659 15.6762 5.027 15.8662 5.23284 15.9929L6.60242 16.7766C6.76867 16.8795 6.96659 16.9033 7.14867 16.8558C7.33867 16.8083 7.497 16.6816 7.59992 16.5154L7.687 16.365C8.13825 15.5891 8.79534 15.1379 9.49992 15.1379Z" fill="#292D32"/>
</svg>