<svg width="21" height="22" viewBox="0 0 21 22" fill="none" xmlns="http://www.w3.org/2000/svg">
<path d="M5.86251 16.9062H3.63127C2.02127 16.9062 1.09375 15.9787 1.09375 14.3687V4.13127C1.09375 2.52127 2.02127 1.59375 3.63127 1.59375H7.39376C9.00376 1.59375 9.93123 2.52127 9.93123 4.13127V5.75C9.93123 6.10875 9.63373 6.40625 9.27498 6.40625C8.91623 6.40625 8.61873 6.10875 8.61873 5.75V4.13127C8.61873 3.23877 8.28626 2.90625 7.39376 2.90625H3.63127C2.73877 2.90625 2.40625 3.23877 2.40625 4.13127V14.3687C2.40625 15.2612 2.73877 15.5938 3.63127 15.5938H5.86251C6.22126 15.5938 6.51876 15.8912 6.51876 16.25C6.51876 16.6088 6.22126 16.9062 5.86251 16.9062Z" fill="#292D32"/>
<path d="M13.0903 20.4062H7.98028C6.22153 20.4062 5.20654 19.3913 5.20654 17.6325V7.86749C5.20654 6.10874 6.22153 5.09375 7.98028 5.09375H13.0903C14.8491 5.09375 15.8553 6.10874 15.8553 7.86749V17.6325C15.8553 19.3913 14.8491 20.4062 13.0903 20.4062ZM7.98028 6.40625C6.93028 6.40625 6.51904 6.81748 6.51904 7.86749V17.6325C6.51904 18.6825 6.93028 19.0938 7.98028 19.0938H13.0903C14.1316 19.0938 14.5428 18.6825 14.5428 17.6325V7.86749C14.5428 6.81748 14.1316 6.40625 13.0903 6.40625H7.98028Z" fill="#292D32"/>
<path d="M17.3688 16.9062H15.1988C14.8401 16.9062 14.5426 16.6088 14.5426 16.25C14.5426 15.8912 14.8401 15.5938 15.1988 15.5938H17.3688C18.2613 15.5938 18.5938 15.2612 18.5938 14.3687V4.13127C18.5938 3.23877 18.2613 2.90625 17.3688 2.90625H13.6063C12.7138 2.90625 12.3813 3.23877 12.3813 4.13127V5.75C12.3813 6.10875 12.0838 6.40625 11.7251 6.40625C11.3663 6.40625 11.0688 6.10875 11.0688 5.75V4.13127C11.0688 2.52127 11.9963 1.59375 13.6063 1.59375H17.3688C18.9788 1.59375 19.9063 2.52127 19.9063 4.13127V14.3687C19.9063 15.9787 18.9788 16.9062 17.3688 16.9062Z" fill="#292D32"/>
<path d="M12.25 10.7812H8.75C8.39125 10.7812 8.09375 10.4837 8.09375 10.125C8.09375 9.76625 8.39125 9.46875 8.75 9.46875H12.25C12.6087 9.46875 12.9062 9.76625 12.9062 10.125C12.9062 10.4837 12.6087 10.7812 12.25 10.7812Z" fill="#292D32"/>
<path d="M12.25 13.4063H8.75C8.39125 13.4063 8.09375 13.1088 8.09375 12.7501C8.09375 12.3913 8.39125 12.0938 8.75 12.0938H12.25C12.6087 12.0938 12.9062 12.3913 12.9062 12.7501C12.9062 13.1088 12.6087 13.4063 12.25 13.4063Z" fill="#292D32"/>
<path d="M10.5 20.4062C10.1413 20.4062 9.84375 20.1087 9.84375 19.7499V17.1249C9.84375 16.7662 10.1413 16.4687 10.5 16.4687C10.8587 16.4687 11.1562 16.7662 11.1562 17.1249V19.7499C11.1562 20.1087 10.8587 20.4062 10.5 20.4062Z" fill="#292D32"/>
</svg>