<svg width="13" height="12" viewBox="0 0 13 12" fill="none" xmlns="http://www.w3.org/2000/svg">
<path fill-rule="evenodd" clip-rule="evenodd" d="M0.587402 5.99999C0.587402 9.43332 2.9874 11.8333 6.42074 11.8333C6.69407 11.8333 6.92074 11.6067 6.92074 11.3333C6.92074 11.06 6.69407 10.8333 6.42074 10.8333C3.57407 10.8333 1.5874 8.84666 1.5874 5.99999C1.5874 3.15332 3.57407 1.16666 6.42074 1.16666C6.69407 1.16666 6.92074 0.93999 6.92074 0.666656C6.92074 0.393323 6.69407 0.166656 6.42074 0.166656C2.9874 0.166656 0.587402 2.56666 0.587402 5.99999ZM10.2074 8.24666C10.0807 8.24666 9.95407 8.19999 9.85407 8.09999C9.66074 7.90666 9.66074 7.58666 9.85407 7.39332L10.7074 6.53999H5.0874C4.81407 6.53999 4.5874 6.31332 4.5874 6.03999C4.5874 5.76666 4.81407 5.53999 5.0874 5.53999H10.7074L9.85407 4.68666C9.66074 4.49332 9.66074 4.17332 9.85407 3.97999C10.0474 3.78666 10.3674 3.78666 10.5607 3.97999L12.2674 5.68666C12.4607 5.87999 12.4607 6.19999 12.2674 6.39332L10.5607 8.09999C10.4607 8.19999 10.3341 8.24666 10.2074 8.24666Z" fill="white"/>
</svg>