<svg width="16" height="16" viewBox="0 0 22 22" fill="none" xmlns="http://www.w3.org/2000/svg">
<path d="M10.5 20.75C4.85 20.75 0.25 16.15 0.25 10.5C0.25 4.85 4.85 0.25 10.5 0.25C16.15 0.25 20.75 4.85 20.75 10.5C20.75 16.15 16.15 20.75 10.5 20.75ZM10.5 1.75C5.67 1.75 1.75 5.68 1.75 10.5C1.75 15.32 5.67 19.25 10.5 19.25C15.33 19.25 19.25 15.32 19.25 10.5C19.25 5.68 15.33 1.75 10.5 1.75Z" fill="#A8B1B8"/>
<path d="M20.9999 21.7499C20.8099 21.7499 20.6199 21.6799 20.4699 21.5299L18.4699 19.5299C18.1799 19.2399 18.1799 18.7599 18.4699 18.4699C18.7599 18.1799 19.2399 18.1799 19.5299 18.4699L21.5299 20.4699C21.8199 20.7599 21.8199 21.2399 21.5299 21.5299C21.3799 21.6799 21.1899 21.7499 20.9999 21.7499Z" fill="#A8B1B8"/>
</svg>