<svg width="23" height="16" viewBox="0 0 23 16" fill="none" xmlns="http://www.w3.org/2000/svg">
    <g clip-path="url(#clip0_1264_937)">
        <path d="M0 0.5H23V15.5H0V0.5Z" fill="#009B3A"/>
        <path d="M11.4999 1.34668L20.6865 7.98703L11.4999 14.623L2.26855 7.98703L11.4999 1.34668Z" fill="#FEDF00"/>
        <path d="M11.5002 11.5263C13.491 11.5263 15.1049 9.94748 15.1049 7.99995C15.1049 6.05242 13.491 4.47363 11.5002 4.47363C9.50938 4.47363 7.89551 6.05242 7.89551 7.99995C7.89551 9.94748 9.50938 11.5263 11.5002 11.5263Z" fill="white"/>
        <path d="M9.67969 7.76746C9.05649 7.76746 8.45123 7.85956 7.88184 8.03062C7.90874 9.95605 9.50932 11.5087 11.482 11.5087C12.7015 11.5087 13.782 10.9122 14.4321 10.0043C13.3158 8.64465 11.5986 7.76746 9.67969 7.76746ZM15.015 8.65781C15.0553 8.43851 15.0822 8.21483 15.0822 7.98237C15.0822 6.035 13.4682 4.45605 11.4775 4.45605C9.99353 4.45605 8.72024 5.33763 8.16429 6.58763C8.65299 6.49114 9.15513 6.43851 9.67072 6.43851C11.769 6.4429 13.661 7.29377 15.015 8.65781Z" fill="#002776"/>
    </g>
    <defs>
        <clipPath id="clip0_1264_937">
            <rect y="0.5" width="23" height="15" rx="2" fill="white"/>
        </clipPath>
    </defs>
</svg>
