<svg width="48" height="48" viewBox="0 0 48 48" fill="none" xmlns="http://www.w3.org/2000/svg">
    <path d="M24 19.5C23.8 19.5 23.62 19.46 23.42 19.38C22.86 19.16 22.5 18.6 22.5 18V4C22.5 3.18 23.18 2.5 24 2.5C24.82 2.5 25.5 3.18 25.5 4V14.38L26.94 12.94C27.52 12.36 28.48 12.36 29.06 12.94C29.64 13.52 29.64 14.48 29.06 15.06L25.06 19.06C24.78 19.34 24.4 19.5 24 19.5Z" fill="#AAAAAA"/>
    <path d="M24.0009 19.4999C23.6209 19.4999 23.2409 19.3599 22.9409 19.0599L18.9409 15.0599C18.3609 14.4799 18.3609 13.5199 18.9409 12.9399C19.5209 12.3599 20.4809 12.3599 21.0609 12.9399L25.0609 16.9399C25.6409 17.5199 25.6409 18.4799 25.0609 19.0599C24.7609 19.3599 24.3809 19.4999 24.0009 19.4999Z" fill="#AAAAAA"/>
    <path d="M27.5209 35.5H20.4609C18.3609 35.5 16.4809 34.34 15.5409 32.46L13.2009 27.78C13.1209 27.6 12.9409 27.5 12.7609 27.5H3.96094C3.14094 27.5 2.46094 26.82 2.46094 26C2.46094 25.18 3.14094 24.5 3.96094 24.5H12.7809C14.1209 24.5 15.3209 25.24 15.9209 26.44L18.2609 31.12C18.6809 31.98 19.5409 32.5 20.5009 32.5H27.5609C28.5209 32.5 29.3809 31.98 29.8009 31.12L32.1409 26.44C32.7409 25.24 33.9409 24.5 35.2809 24.5H44.0009C44.8209 24.5 45.5009 25.18 45.5009 26C45.5009 26.82 44.8209 27.5 44.0009 27.5H35.2809C35.0809 27.5 34.9209 27.6 34.8409 27.78L32.5009 32.46C31.5009 34.34 29.6209 35.5 27.5209 35.5Z" fill="#AAAAAA"/>
    <path d="M30 45.4999H18C7.14 45.4999 2.5 40.8599 2.5 29.9999V21.9999C2.5 12.6199 5.98 7.91986 13.78 6.77986C14.62 6.65986 15.36 7.21986 15.48 8.03986C15.6 8.85985 15.04 9.61985 14.22 9.73985C7.94 10.6599 5.5 14.0999 5.5 21.9999V29.9999C5.5 39.2199 8.78 42.4999 18 42.4999H30C39.22 42.4999 42.5 39.2199 42.5 29.9999V21.9999C42.5 14.0999 40.06 10.6599 33.78 9.73985C32.96 9.61985 32.4 8.85985 32.52 8.03986C32.64 7.21986 33.4 6.65986 34.22 6.77986C42.02 7.91986 45.5 12.6199 45.5 21.9999V29.9999C45.5 40.8599 40.86 45.4999 30 45.4999Z" fill="#AAAAAA"/>
</svg>
