<svg width="20" height="20" viewBox="0 0 20 20" fill="none" xmlns="http://www.w3.org/2000/svg">
    <path d="M16.1157 12.0751L15.2824 10.6917C15.1074 10.3834 14.949 9.80008 14.949 9.45841V7.35008C14.949 5.39175 13.799 3.70008 12.1407 2.90841C11.7073 2.14175 10.9073 1.66675 9.99068 1.66675C9.08235 1.66675 8.26568 2.15841 7.83235 2.93341C6.20735 3.74175 5.08235 5.41675 5.08235 7.35008V9.45841C5.08235 9.80008 4.92402 10.3834 4.74902 10.6834L3.90735 12.0751C3.57402 12.6334 3.49902 13.2501 3.70735 13.8167C3.90735 14.3751 4.38235 14.8084 4.99902 15.0167C6.61568 15.5667 8.31568 15.8334 10.0157 15.8334C11.7157 15.8334 13.4157 15.5667 15.0324 15.0251C15.6157 14.8334 16.0657 14.3917 16.2824 13.8167C16.499 13.2417 16.4407 12.6084 16.1157 12.0751Z" fill="#5B6B79"/>
    <path d="M12.3574 16.6751C12.0074 17.6417 11.0824 18.3334 9.99905 18.3334C9.34071 18.3334 8.69071 18.0667 8.23238 17.5917C7.96571 17.3417 7.76571 17.0084 7.64905 16.6667C7.75738 16.6834 7.86571 16.6917 7.98238 16.7084C8.17405 16.7334 8.37405 16.7584 8.57405 16.7751C9.04905 16.8167 9.53238 16.8417 10.0157 16.8417C10.4907 16.8417 10.9657 16.8167 11.4324 16.7751C11.6074 16.7584 11.7824 16.7501 11.949 16.7251C12.0824 16.7084 12.2157 16.6917 12.3574 16.6751Z" fill="#5B6B79"/>
</svg>
